<?xml version="1.0" encoding="UTF-8" standalone="no"?>
<svg
   height="30"
   viewBox="0 -960 1200 1200"
   width="30"
   fill="#2854c5"
   version="1.1"
   id="svg297"
   sodipodi:docname="agenda.svg"
   inkscape:version="1.2.2 (b0a8486541, 2022-12-01)"
   xmlns:inkscape="http://www.inkscape.org/namespaces/inkscape"
   xmlns:sodipodi="http://sodipodi.sourceforge.net/DTD/sodipodi-0.dtd"
   xmlns="http://www.w3.org/2000/svg"
   xmlns:svg="http://www.w3.org/2000/svg">
  <defs
     id="defs301" />
  <sodipodi:namedview
     id="namedview299"
     pagecolor="#ffffff"
     bordercolor="#666666"
     borderopacity="1.0"
     inkscape:showpageshadow="2"
     inkscape:pageopacity="0.0"
     inkscape:pagecheckerboard="0"
     inkscape:deskcolor="#d1d1d1"
     showgrid="false"
     inkscape:zoom="10.395833"
     inkscape:cx="3.6072144"
     inkscape:cy="12.12024"
     inkscape:current-layer="svg297" />
  <path
     d="M 200,115 Q 158.75,115 129.375,85.625 100,56.25 100,15 v -700 q 0,-41.25 29.375,-70.625 Q 158.75,-785 200,-785 h 50 v -100 h 100 v 100 h 400 v -100 h 100 v 100 h 50 q 41.25,0 70.625,29.375 Q 1000,-726.25 1000,-685 v 233.75 q 0,21.25 -14.375,35.625 -14.375,14.375 -35.625,14.375 -21.25,0 -35.625,-14.375 Q 900,-430 900,-451.25 V -485 H 200 V 15 h 290 q 21.25,0 35.625,14.375 Q 540,43.75 540,65 540,86.25 525.625,100.625 511.25,115 490,115 Z m 650,50 Q 746.25,165 673.125,91.875 600,18.75 600,-85 600,-188.75 673.125,-261.875 746.25,-335 850,-335 q 103.75,0 176.875,73.125 Q 1100,-188.75 1100,-85 1100,18.75 1026.875,91.875 953.75,165 850,165 Z m 83.75,-131.25 35,-35 L 875,-95 v -140 h -50 v 160 z"
     id="path295"
     style="stroke-width:1.25" />
</svg>
