<?xml version="1.0" encoding="UTF-8" standalone="no"?>
<svg
   height="30"
   viewBox="0 -960 1200 1200"
   width="30"
   fill="#434343"
   version="1.1"
   id="svg470"
   sodipodi:docname="checklist.svg"
   inkscape:version="1.2.2 (b0a8486541, 2022-12-01)"
   xmlns:inkscape="http://www.inkscape.org/namespaces/inkscape"
   xmlns:sodipodi="http://sodipodi.sourceforge.net/DTD/sodipodi-0.dtd"
   xmlns="http://www.w3.org/2000/svg"
   xmlns:svg="http://www.w3.org/2000/svg">
  <defs
     id="defs474" />
  <sodipodi:namedview
     id="namedview472"
     pagecolor="#ffffff"
     bordercolor="#666666"
     borderopacity="1.0"
     inkscape:showpageshadow="2"
     inkscape:pageopacity="0.0"
     inkscape:pagecheckerboard="0"
     inkscape:deskcolor="#d1d1d1"
     showgrid="false"
     inkscape:zoom="10.395833"
     inkscape:cx="7.8396794"
     inkscape:cy="19.046092"
     inkscape:current-layer="svg470" />
  <path
     d="M 200,90 Q 158.75,90 129.375,60.625 100,31.25 100,-10 v -700 q 0,-41.25 29.375,-70.625 Q 158.75,-810 200,-810 h 800 q 41.25,0 70.625,29.375 Q 1100,-751.25 1100,-710 v 700 q 0,41.25 -29.375,70.625 Q 1041.25,90 1000,90 Z m 50,-200 H 500 V -210 H 250 Z m 477.5,-100 247.5,-247.5 -71.25,-71.25 -176.25,177.5 -71.25,-71.25 -70,71.25 z M 250,-310 H 500 V -410 H 250 Z m 0,-200 H 500 V -610 H 250 Z"
     id="path468"
     style="stroke-width:1.25" />
</svg>
