<?xml version="1.0" encoding="UTF-8" standalone="no"?>
<svg
   height="30"
   viewBox="0 -960 1200 1200"
   width="30"
   fill="#75fb4c"
   version="1.1"
   id="svg1222"
   sodipodi:docname="entrega.svg"
   inkscape:version="1.2.2 (b0a8486541, 2022-12-01)"
   xmlns:inkscape="http://www.inkscape.org/namespaces/inkscape"
   xmlns:sodipodi="http://sodipodi.sourceforge.net/DTD/sodipodi-0.dtd"
   xmlns="http://www.w3.org/2000/svg"
   xmlns:svg="http://www.w3.org/2000/svg">
  <defs
     id="defs1226" />
  <sodipodi:namedview
     id="namedview1224"
     pagecolor="#ffffff"
     bordercolor="#666666"
     borderopacity="1.0"
     inkscape:showpageshadow="2"
     inkscape:pageopacity="0.0"
     inkscape:pagecheckerboard="0"
     inkscape:deskcolor="#d1d1d1"
     showgrid="false"
     inkscape:zoom="7.3509643"
     inkscape:cx="3.6729875"
     inkscape:cy="11.971219"
     inkscape:current-layer="svg1222" />
  <path
     d="m 375,26.875 v -451.25 h 80 q 8.75,0 17.5,1.875 8.75,1.875 17.5,4.375 l 346.25,128.75 q 17.5,6.25 28.125,22.5 10.625,16.25 10.625,33.75 0,26.25 -18.125,42.5 -18.125,16.25 -41.875,16.25 H 683.75 q -6.25,0 -9.375,-0.625 -3.125,-0.625 -8.125,-3.125 l -80,-31.25 -16.25,48.75 96.25,33.75 q 2.5,1.25 7.5,1.875 5,0.625 8.75,0.625 H 1025 q 40,0 70,28.75 30,28.75 30,71.25 l -398.75,150 z m -300,98.75 v -550 h 200 v 550 z m 596.25,-547.5 -212.5,-212.5 71.25,-70 141.25,141.25 283.75,-282.5 70,70 z"
     id="path1220"
     style="stroke-width:1.25;fill:#00d400" />
</svg>
