<?xml version="1.0" encoding="UTF-8" standalone="no"?>
<svg
   height="30"
   viewBox="0 -960 1200 1200"
   width="30"
   fill="#789de5"
   version="1.1"
   id="svg1077"
   sodipodi:docname="lavajato.svg"
   inkscape:version="1.2.2 (b0a8486541, 2022-12-01)"
   xmlns:inkscape="http://www.inkscape.org/namespaces/inkscape"
   xmlns:sodipodi="http://sodipodi.sourceforge.net/DTD/sodipodi-0.dtd"
   xmlns="http://www.w3.org/2000/svg"
   xmlns:svg="http://www.w3.org/2000/svg">
  <defs
     id="defs1081" />
  <sodipodi:namedview
     id="namedview1079"
     pagecolor="#ffffff"
     bordercolor="#666666"
     borderopacity="1.0"
     inkscape:showpageshadow="2"
     inkscape:pageopacity="0.0"
     inkscape:pagecheckerboard="0"
     inkscape:deskcolor="#d1d1d1"
     showgrid="false"
     inkscape:zoom="7.3509643"
     inkscape:cx="-0.61216459"
     inkscape:cy="10.202743"
     inkscape:current-layer="svg1077" />
  <path
     d="m 600,-710 q -31.25,0 -53.125,-21.875 Q 525,-753.75 525,-785 q 0,-26.25 18.125,-56.25 18.125,-30 56.875,-68.75 38.75,38.75 56.875,68.75 18.125,30 18.125,56.25 0,31.25 -21.875,53.125 Q 631.25,-710 600,-710 Z m -250,0 q -31.25,0 -53.125,-21.875 Q 275,-753.75 275,-785 q 0,-26.25 18.125,-56.25 18.125,-30 56.875,-68.75 38.75,38.75 56.875,68.75 18.125,30 18.125,56.25 0,31.25 -21.875,53.125 Q 381.25,-710 350,-710 Z m 500,0 q -31.25,0 -53.125,-21.875 Q 775,-753.75 775,-785 q 0,-26.25 18.125,-56.25 18.125,-30 56.875,-68.75 38.75,38.75 56.875,68.75 18.125,30 18.125,56.25 0,31.25 -21.875,53.125 Q 881.25,-710 850,-710 Z M 300,90 v 50 q 0,21.25 -14.375,35.625 Q 271.25,190 250,190 H 200 Q 178.75,190 164.375,175.625 150,161.25 150,140 v -400 l 105,-300 q 7.5,-22.5 26.875,-36.25 Q 301.25,-610 325,-610 h 550 q 23.75,0 43.125,13.75 Q 937.5,-582.5 945,-560 l 105,300 v 400 q 0,21.25 -14.375,35.625 Q 1021.25,190 1000,190 H 950 Q 928.75,190 914.375,175.625 900,161.25 900,140 V 90 Z m -10,-450 h 620 l -52.5,-150 h -515 z m 85,300 q 31.25,0 53.125,-21.875 Q 450,-103.75 450,-135 450,-166.25 428.125,-188.125 406.25,-210 375,-210 q -31.25,0 -53.125,21.875 Q 300,-166.25 300,-135 q 0,31.25 21.875,53.125 Q 343.75,-60 375,-60 Z m 450,0 q 31.25,0 53.125,-21.875 Q 900,-103.75 900,-135 900,-166.25 878.125,-188.125 856.25,-210 825,-210 q -31.25,0 -53.125,21.875 Q 750,-166.25 750,-135 q 0,31.25 21.875,53.125 Q 793.75,-60 825,-60 Z"
     id="path1075"
     style="stroke-width:1.25" />
</svg>
