<?xml version="1.0" encoding="UTF-8" standalone="no"?>
<svg
   height="30"
   viewBox="0 -960 1200 1200"
   width="30"
   fill="#ffd700"
   version="1.1"
   id="svg4"
   sodipodi:docname="orcamento.svg"
   inkscape:version="1.2.2 (b0a8486541, 2022-12-01)"
   xmlns:inkscape="http://www.inkscape.org/namespaces/inkscape"
   xmlns:sodipodi="http://sodipodi.sourceforge.net/DTD/sodipodi-0.dtd"
   xmlns="http://www.w3.org/2000/svg"
   xmlns:svg="http://www.w3.org/2000/svg">
  <defs
     id="defs8" />
  <sodipodi:namedview
     id="namedview6"
     pagecolor="#ffffff"
     bordercolor="#666666"
     borderopacity="1.0"
     inkscape:showpageshadow="2"
     inkscape:pageopacity="0.0"
     inkscape:pagecheckerboard="0"
     inkscape:deskcolor="#d1d1d1"
     showgrid="false"
     inkscape:zoom="10.395833"
     inkscape:cx="7.4549098"
     inkscape:cy="18.084168"
     inkscape:current-layer="svg4" />
  <path
     d="M 300,140 Q 258.75,140 229.375,110.625 200,81.25 200,40 v -800 q 0,-41.25 29.375,-70.625 Q 258.75,-860 300,-860 h 400 l 300,300 V 40 q 0,41.25 -29.375,70.625 Q 941.25,140 900,140 Z M 550,-10 h 100 v -50 h 50 q 21.25,0 35.625,-14.375 Q 750,-88.75 750,-110 v -150 q 0,-21.25 -14.375,-35.625 Q 721.25,-310 700,-310 H 550 v -50 H 750 V -460 H 650 v -50 H 550 v 50 h -50 q -21.25,0 -35.625,14.375 Q 450,-431.25 450,-410 v 150 q 0,21.25 14.375,35.625 Q 478.75,-210 500,-210 h 150 v 50 H 450 v 100 h 100 z m 108.75,-550 h 200 l -200,-200 z"
     id="path2"
     style="stroke-width:1.25" />
</svg>
