<?xml version="1.0" encoding="UTF-8" standalone="no"?>
<svg
   height="30"
   viewBox="0 -960 1200 1200"
   width="30"
   fill="#ff9705"
   version="1.1"
   id="svg932"
   sodipodi:docname="pintura.svg"
   inkscape:version="1.2.2 (b0a8486541, 2022-12-01)"
   xmlns:inkscape="http://www.inkscape.org/namespaces/inkscape"
   xmlns:sodipodi="http://sodipodi.sourceforge.net/DTD/sodipodi-0.dtd"
   xmlns="http://www.w3.org/2000/svg"
   xmlns:svg="http://www.w3.org/2000/svg">
  <defs
     id="defs936" />
  <sodipodi:namedview
     id="namedview934"
     pagecolor="#ffffff"
     bordercolor="#666666"
     borderopacity="1.0"
     inkscape:showpageshadow="2"
     inkscape:pageopacity="0.0"
     inkscape:pagecheckerboard="0"
     inkscape:deskcolor="#d1d1d1"
     showgrid="false"
     inkscape:zoom="10.395833"
     inkscape:cx="12.841683"
     inkscape:cy="14.52505"
     inkscape:current-layer="svg932" />
  <path
     d="M 600,140 Q 497.5,140 406.25,100.625 315,61.25 246.875,-6.875 178.75,-75 139.375,-166.25 100,-257.5 100,-360 q 0,-103.75 40.625,-195 40.625,-91.25 110,-158.75 Q 320,-781.25 412.5,-820.625 505,-860 610,-860 q 100,0 188.75,34.375 88.75,34.375 155.625,95 66.875,60.625 106.25,143.75 39.375,83.125 39.375,179.375 0,143.75 -87.5,220.625 Q 925,-110 800,-110 h -92.5 q -11.25,0 -15.625,6.25 -4.375,6.25 -4.375,13.75 0,15 18.75,43.125 Q 725,-18.75 725,17.5 725,80 690.625,110 656.25,140 600,140 Z M 325,-310 q 32.5,0 53.75,-21.25 Q 400,-352.5 400,-385 400,-417.5 378.75,-438.75 357.5,-460 325,-460 q -32.5,0 -53.75,21.25 Q 250,-417.5 250,-385 q 0,32.5 21.25,53.75 Q 292.5,-310 325,-310 Z m 150,-200 q 32.5,0 53.75,-21.25 Q 550,-552.5 550,-585 550,-617.5 528.75,-638.75 507.5,-660 475,-660 q -32.5,0 -53.75,21.25 Q 400,-617.5 400,-585 q 0,32.5 21.25,53.75 Q 442.5,-510 475,-510 Z m 250,0 q 32.5,0 53.75,-21.25 Q 800,-552.5 800,-585 800,-617.5 778.75,-638.75 757.5,-660 725,-660 q -32.5,0 -53.75,21.25 Q 650,-617.5 650,-585 q 0,32.5 21.25,53.75 Q 692.5,-510 725,-510 Z m 150,200 q 32.5,0 53.75,-21.25 Q 950,-352.5 950,-385 950,-417.5 928.75,-438.75 907.5,-460 875,-460 q -32.5,0 -53.75,21.25 Q 800,-417.5 800,-385 q 0,32.5 21.25,53.75 Q 842.5,-310 875,-310 Z"
     id="path930"
     style="stroke-width:1.25" />
</svg>
