<?xml version="1.0" encoding="UTF-8" standalone="no"?>
<svg
   height="30"
   viewBox="0 -960 1200 1200"
   width="30"
   fill="#6305c2"
   version="1.1"
   id="svg642"
   sodipodi:docname="recebimento.svg"
   inkscape:version="1.2.2 (b0a8486541, 2022-12-01)"
   xmlns:inkscape="http://www.inkscape.org/namespaces/inkscape"
   xmlns:sodipodi="http://sodipodi.sourceforge.net/DTD/sodipodi-0.dtd"
   xmlns="http://www.w3.org/2000/svg"
   xmlns:svg="http://www.w3.org/2000/svg">
  <defs
     id="defs646" />
  <sodipodi:namedview
     id="namedview644"
     pagecolor="#ffffff"
     bordercolor="#666666"
     borderopacity="1.0"
     inkscape:showpageshadow="2"
     inkscape:pageopacity="0.0"
     inkscape:pagecheckerboard="0"
     inkscape:deskcolor="#d1d1d1"
     showgrid="false"
     inkscape:zoom="14.701928"
     inkscape:cx="9.5565694"
     inkscape:cy="12.31131"
     inkscape:current-layer="svg642" />
  <path
     d="m 812.5,115 -25,-300 -75,-50 v -200 q 0,-41.25 29.375,-70.625 Q 771.25,-535 812.5,-535 h 25 l 50,100 50,-100 h 25 q 41.25,0 70.625,29.375 29.375,29.375 29.375,70.625 v 200 l -75,50 -25,300 z m 75,-700 q -41.25,0 -70.625,-29.375 Q 787.5,-643.75 787.5,-685 h 200 q 0,41.25 -29.375,70.625 Q 928.75,-585 887.5,-585 Z m -100,-150 v -50 q 0,-21.25 14.375,-35.625 Q 816.25,-835 837.5,-835 h 100 q 21.25,0 35.625,14.375 Q 987.5,-806.25 987.5,-785 v 50 z m -350,850 Q 416.25,115 401.875,100.625 387.5,86.25 387.5,65 V 15 h -250 v -450 h 260 L 345,-585 H 137.5 v -100 h 225 q 23.75,0 43.125,13.75 Q 425,-657.5 432.5,-635 l 105,300 V 65 q 0,21.25 -14.375,35.625 Q 508.75,115 487.5,115 Z m -125,-250 q 31.25,0 53.125,-21.875 Q 387.5,-178.75 387.5,-210 q 0,-31.25 -21.875,-53.125 Q 343.75,-285 312.5,-285 q -31.25,0 -53.125,21.875 Q 237.5,-241.25 237.5,-210 q 0,31.25 21.875,53.125 Q 281.25,-135 312.5,-135 Z"
     id="path640"
     style="stroke-width:1.25" />
</svg>
